<?xml version="1.0" encoding="UTF-8" standalone="no"?>
<!-- Created with Inkscape (http://www.inkscape.org/) -->
<svg
   xmlns:dc="http://purl.org/dc/elements/1.1/"
   xmlns:cc="http://creativecommons.org/ns#"
   xmlns:rdf="http://www.w3.org/1999/02/22-rdf-syntax-ns#"
   xmlns:svg="http://www.w3.org/2000/svg"
   xmlns="http://www.w3.org/2000/svg"
   xmlns:sodipodi="http://sodipodi.sourceforge.net/DTD/sodipodi-0.dtd"
   xmlns:inkscape="http://www.inkscape.org/namespaces/inkscape"
   width="624.21118"
   height="270.10275"
   id="svg2"
   sodipodi:version="0.32"
   inkscape:version="0.46"
   sodipodi:docbase="/home/dapper/work/hepr8.physics.tamu.edu/talks/2008-06-06_postCSA_software_update"
   sodipodi:docname="curvature_extrapolation.svg"
   inkscape:output_extension="org.inkscape.output.svg.inkscape"
   version="1.0"
   inkscape:export-filename="/home/dapper/work/hepr8.physics.tamu.edu/talks/2008-06-06_postCSA_software_update/curvature_extrapolation.png"
   inkscape:export-xdpi="187.59528"
   inkscape:export-ydpi="187.59528">
  <sodipodi:namedview
     id="base"
     pagecolor="#ffffff"
     bordercolor="#666666"
     borderopacity="1.0"
     gridtolerance="10000"
     guidetolerance="10"
     objecttolerance="10"
     inkscape:pageopacity="0.0"
     inkscape:pageshadow="2"
     inkscape:zoom="0.98994949"
     inkscape:cx="318.26921"
     inkscape:cy="69.895501"
     inkscape:document-units="px"
     inkscape:current-layer="layer1"
     inkscape:window-width="1274"
     inkscape:window-height="756"
     inkscape:window-x="0"
     inkscape:window-y="0"
     showgrid="false" />
  <defs
     id="defs4">
    <inkscape:perspective
       id="perspective86"
       inkscape:persp3d-origin="312.10559 : 90.034251 : 1"
       inkscape:vp_z="624.21118 : 135.05138 : 1"
       inkscape:vp_y="0 : 1000 : 0"
       inkscape:vp_x="0 : 135.05138 : 1"
       sodipodi:type="inkscape:persp3d" />
    <marker
       style="overflow:visible"
       id="Arrow1Mend"
       refX="0"
       refY="0"
       orient="auto"
       inkscape:stockid="Arrow1Mend">
      <path
         transform="matrix(-0.4,0,0,-0.4,-4,0)"
         style="fill-rule:evenodd;stroke:#000000;stroke-width:1pt;marker-start:none"
         d="M 0,0 L 5,-5 L -12.5,0 L 5,5 L 0,0 z "
         id="path3243" />
    </marker>
    <clipPath
       id="clipPath7881"
       clipPathUnits="userSpaceOnUse">
      <rect
         y="380.61075"
         x="925.29974"
         height="67.680222"
         width="37.375645"
         id="rect7883"
         style="opacity:1;color:#000000;fill:none;fill-opacity:1;fill-rule:nonzero;stroke:#000000;stroke-width:2;stroke-linecap:butt;stroke-linejoin:miter;marker:none;marker-start:none;marker-mid:none;marker-end:none;stroke-miterlimit:4;stroke-dasharray:none;stroke-dashoffset:0;stroke-opacity:1;visibility:visible;display:inline;overflow:visible;enable-background:accumulate" />
    </clipPath>
    <clipPath
       id="clipPath7885"
       clipPathUnits="userSpaceOnUse">
      <rect
         y="380.61075"
         x="925.29974"
         height="67.680222"
         width="37.375645"
         id="rect7887"
         style="opacity:1;color:#000000;fill:none;fill-opacity:1;fill-rule:nonzero;stroke:#000000;stroke-width:2;stroke-linecap:butt;stroke-linejoin:miter;marker:none;marker-start:none;marker-mid:none;marker-end:none;stroke-miterlimit:4;stroke-dasharray:none;stroke-dashoffset:0;stroke-opacity:1;visibility:visible;display:inline;overflow:visible;enable-background:accumulate" />
    </clipPath>
    <clipPath
       id="clipPath7889"
       clipPathUnits="userSpaceOnUse">
      <rect
         y="380.61075"
         x="925.29974"
         height="67.680222"
         width="37.375645"
         id="rect7891"
         style="opacity:1;color:#000000;fill:none;fill-opacity:1;fill-rule:nonzero;stroke:#000000;stroke-width:2;stroke-linecap:butt;stroke-linejoin:miter;marker:none;marker-start:none;marker-mid:none;marker-end:none;stroke-miterlimit:4;stroke-dasharray:none;stroke-dashoffset:0;stroke-opacity:1;visibility:visible;display:inline;overflow:visible;enable-background:accumulate" />
    </clipPath>
    <clipPath
       id="clipPath7893"
       clipPathUnits="userSpaceOnUse">
      <rect
         y="380.61075"
         x="925.29974"
         height="67.680222"
         width="37.375645"
         id="rect7895"
         style="opacity:1;color:#000000;fill:none;fill-opacity:1;fill-rule:nonzero;stroke:#000000;stroke-width:2;stroke-linecap:butt;stroke-linejoin:miter;marker:none;marker-start:none;marker-mid:none;marker-end:none;stroke-miterlimit:4;stroke-dasharray:none;stroke-dashoffset:0;stroke-opacity:1;visibility:visible;display:inline;overflow:visible;enable-background:accumulate" />
    </clipPath>
    <clipPath
       id="clipPath7897"
       clipPathUnits="userSpaceOnUse">
      <rect
         y="298.7681"
         x="249.9545"
         height="67.680222"
         width="37.375645"
         id="rect7899"
         style="opacity:1;color:#000000;fill:none;fill-opacity:1;fill-rule:nonzero;stroke:#000000;stroke-width:2;stroke-linecap:butt;stroke-linejoin:miter;marker:none;marker-start:none;marker-mid:none;marker-end:none;stroke-miterlimit:4;stroke-dasharray:none;stroke-dashoffset:0;stroke-opacity:1;visibility:visible;display:inline;overflow:visible;enable-background:accumulate" />
    </clipPath>
    <clipPath
       id="clipPath7901"
       clipPathUnits="userSpaceOnUse">
      <rect
         y="319.98129"
         x="254.5002"
         height="67.680222"
         width="37.375645"
         id="rect7903"
         style="opacity:1;color:#000000;fill:none;fill-opacity:1;fill-rule:nonzero;stroke:#000000;stroke-width:2;stroke-linecap:butt;stroke-linejoin:miter;marker:none;marker-start:none;marker-mid:none;marker-end:none;stroke-miterlimit:4;stroke-dasharray:none;stroke-dashoffset:0;stroke-opacity:1;visibility:visible;display:inline;overflow:visible;enable-background:accumulate" />
    </clipPath>
    <clipPath
       id="clipPath7905"
       clipPathUnits="userSpaceOnUse">
      <rect
         y="276.03967"
         x="248.94435"
         height="67.680222"
         width="37.375645"
         id="rect7907"
         style="opacity:1;color:#000000;fill:none;fill-opacity:1;fill-rule:nonzero;stroke:#000000;stroke-width:2;stroke-linecap:butt;stroke-linejoin:miter;marker:none;marker-start:none;marker-mid:none;marker-end:none;stroke-miterlimit:4;stroke-dasharray:none;stroke-dashoffset:0;stroke-opacity:1;visibility:visible;display:inline;overflow:visible;enable-background:accumulate" />
    </clipPath>
    <clipPath
       id="clipPath7909"
       clipPathUnits="userSpaceOnUse">
      <rect
         y="380.61075"
         x="485.29974"
         height="67.680222"
         width="37.375645"
         id="rect7911"
         style="opacity:1;color:#000000;fill:none;fill-opacity:1;fill-rule:nonzero;stroke:#000000;stroke-width:2;stroke-linecap:butt;stroke-linejoin:miter;marker:none;marker-start:none;marker-mid:none;marker-end:none;stroke-miterlimit:4;stroke-dasharray:none;stroke-dashoffset:0;stroke-opacity:1;visibility:visible;display:inline;overflow:visible;enable-background:accumulate" />
    </clipPath>
  </defs>
  <metadata
     id="metadata7">
    <rdf:RDF>
      <cc:Work
         rdf:about="">
        <dc:format>image/svg+xml</dc:format>
        <dc:type
           rdf:resource="http://purl.org/dc/dcmitype/StillImage" />
      </cc:Work>
    </rdf:RDF>
  </metadata>
  <g
     transform="translate(-327.57144,-193.74255)"
     inkscape:groupmode="layer"
     id="layer1"
     inkscape:label="Layer 1">
    <path
       sodipodi:ry="178.57143"
       sodipodi:rx="178.57143"
       sodipodi:end="6.2812123"
       sodipodi:start="5.1818238"
       d="M 409.354,277.39359 A 178.57143,178.57143 0 0 1 507.14252,436.29557 L 328.57144,436.64789 z"
       sodipodi:type="arc"
       sodipodi:cy="436.64789"
       sodipodi:cx="328.57144"
       id="path2164"
       style="color:#000000;fill:none;fill-opacity:1;fill-rule:nonzero;stroke:#000000;stroke-width:2;stroke-linecap:butt;stroke-linejoin:miter;marker:none;marker-start:none;marker-mid:none;marker-end:none;stroke-miterlimit:4;stroke-dasharray:none;stroke-dashoffset:0;stroke-opacity:1;visibility:visible;display:inline;overflow:visible;enable-background:accumulate"
       inkscape:export-filename="/home/jpivarski/work/hepr8.physics.tamu.edu/talks/latest/curvature_extrapolation.png"
       inkscape:export-xdpi="187.59528"
       inkscape:export-ydpi="187.59528" />
    <path
       sodipodi:ry="3.7880719"
       sodipodi:rx="3.7880719"
       transform="translate(138.87567,-54.022856)"
       d="M 274.25643 331.36581 A 3.7880719 3.7880719 0 1 1  266.68028,331.36581 A 3.7880719 3.7880719 0 1 1  274.25643 331.36581 z"
       sodipodi:type="arc"
       sodipodi:cy="331.36581"
       sodipodi:cx="270.46835"
       id="path4105"
       style="color:#000000;fill:#000000;fill-opacity:1;fill-rule:nonzero;stroke:none;stroke-width:2;stroke-linecap:butt;stroke-linejoin:miter;marker:none;marker-start:none;marker-mid:none;marker-end:none;stroke-miterlimit:4;stroke-dasharray:none;stroke-dashoffset:0;stroke-opacity:1;visibility:visible;display:inline;overflow:visible;enable-background:accumulate"
       inkscape:export-filename="/home/jpivarski/work/hepr8.physics.tamu.edu/talks/latest/curvature_extrapolation.png"
       inkscape:export-xdpi="187.59528"
       inkscape:export-ydpi="187.59528" />
    <path
       sodipodi:ry="3.7880719"
       sodipodi:rx="3.7880719"
       transform="translate(236.35539,104.57109)"
       d="M 274.25643 331.36581 A 3.7880719 3.7880719 0 1 1  266.68028,331.36581 A 3.7880719 3.7880719 0 1 1  274.25643 331.36581 z"
       sodipodi:type="arc"
       sodipodi:cy="331.36581"
       sodipodi:cx="270.46835"
       id="path5078"
       style="color:#000000;fill:#000000;fill-opacity:1;fill-rule:nonzero;stroke:none;stroke-width:2;stroke-linecap:butt;stroke-linejoin:miter;marker:none;marker-start:none;marker-mid:none;marker-end:none;stroke-miterlimit:4;stroke-dasharray:none;stroke-dashoffset:0;stroke-opacity:1;visibility:visible;display:inline;overflow:visible;enable-background:accumulate"
       inkscape:export-filename="/home/jpivarski/work/hepr8.physics.tamu.edu/talks/latest/curvature_extrapolation.png"
       inkscape:export-xdpi="187.59528"
       inkscape:export-ydpi="187.59528" />
    <path
       sodipodi:ry="3.7880719"
       sodipodi:rx="3.7880719"
       transform="translate(230.79955,60.629454)"
       d="M 274.25643 331.36581 A 3.7880719 3.7880719 0 1 1  266.68028,331.36581 A 3.7880719 3.7880719 0 1 1  274.25643 331.36581 z"
       sodipodi:type="arc"
       sodipodi:cy="331.36581"
       sodipodi:cx="270.46835"
       id="path5080"
       style="color:#000000;fill:#000000;fill-opacity:1;fill-rule:nonzero;stroke:none;stroke-width:2;stroke-linecap:butt;stroke-linejoin:miter;marker:none;marker-start:none;marker-mid:none;marker-end:none;stroke-miterlimit:4;stroke-dasharray:none;stroke-dashoffset:0;stroke-opacity:1;visibility:visible;display:inline;overflow:visible;enable-background:accumulate"
       inkscape:export-filename="/home/jpivarski/work/hepr8.physics.tamu.edu/talks/latest/curvature_extrapolation.png"
       inkscape:export-xdpi="187.59528"
       inkscape:export-ydpi="187.59528" />
    <path
       sodipodi:ry="3.7880719"
       sodipodi:rx="3.7880719"
       transform="translate(235.34524,81.842657)"
       d="M 274.25643 331.36581 A 3.7880719 3.7880719 0 1 1  266.68028,331.36581 A 3.7880719 3.7880719 0 1 1  274.25643 331.36581 z"
       sodipodi:type="arc"
       sodipodi:cy="331.36581"
       sodipodi:cx="270.46835"
       id="path5082"
       style="color:#000000;fill:#000000;fill-opacity:1;fill-rule:nonzero;stroke:none;stroke-width:2;stroke-linecap:butt;stroke-linejoin:miter;marker:none;marker-start:none;marker-mid:none;marker-end:none;stroke-miterlimit:4;stroke-dasharray:none;stroke-dashoffset:0;stroke-opacity:1;visibility:visible;display:inline;overflow:visible;enable-background:accumulate"
       inkscape:export-filename="/home/jpivarski/work/hepr8.physics.tamu.edu/talks/latest/curvature_extrapolation.png"
       inkscape:export-xdpi="187.59528"
       inkscape:export-ydpi="187.59528" />
    <path
       id="path5088"
       d="M 506.42857,436.6479 L 506.42857,274.50504"
       style="color:#000000;fill:none;fill-opacity:1;fill-rule:nonzero;stroke:#000000;stroke-width:2;stroke-linecap:butt;stroke-linejoin:miter;marker:none;marker-start:none;marker-mid:none;marker-end:none;stroke-miterlimit:4;stroke-dasharray:none;stroke-dashoffset:0;stroke-opacity:1;visibility:visible;display:inline;overflow:visible;enable-background:accumulate"
       inkscape:export-filename="/home/jpivarski/work/hepr8.physics.tamu.edu/talks/latest/curvature_extrapolation.png"
       inkscape:export-xdpi="187.59528"
       inkscape:export-ydpi="187.59528" />
    <path
       d="M 500.71429,392.36218 L 329.30803,436.11218"
       sodipodi:nodetypes="cc"
       id="path5090"
       style="color:#000000;fill:none;fill-opacity:1;fill-rule:nonzero;stroke:#000000;stroke-width:2;stroke-linecap:butt;stroke-linejoin:miter;marker:none;marker-start:none;marker-mid:none;marker-end:none;stroke-miterlimit:4;stroke-dasharray:none;stroke-dashoffset:0;stroke-opacity:1;visibility:visible;display:inline;overflow:visible;enable-background:accumulate"
       inkscape:export-filename="/home/jpivarski/work/hepr8.physics.tamu.edu/talks/latest/curvature_extrapolation.png"
       inkscape:export-xdpi="187.59528"
       inkscape:export-ydpi="187.59528" />
    <path
       id="path5092"
       d="M 409.28571,276.6479 L 505.71429,276.6479"
       style="color:#000000;fill:none;fill-opacity:1;fill-rule:nonzero;stroke:#000000;stroke-width:2;stroke-linecap:butt;stroke-linejoin:miter;marker:none;marker-start:none;marker-mid:none;marker-end:none;stroke-miterlimit:4;stroke-dasharray:6, 6;stroke-dashoffset:0;stroke-opacity:1;visibility:visible;display:inline;overflow:visible;enable-background:accumulate"
       inkscape:export-filename="/home/jpivarski/work/hepr8.physics.tamu.edu/talks/latest/curvature_extrapolation.png"
       inkscape:export-xdpi="187.59528"
       inkscape:export-ydpi="187.59528" />
    <text
       xml:space="preserve"
       x="618.15076"
       y="395.21933"
       sodipodi:linespacing="125%"
       id="text6063"
       style="font-size:14px;font-style:normal;font-variant:normal;font-weight:normal;font-stretch:normal;text-align:center;line-height:125%;writing-mode:lr-tb;text-anchor:middle;fill:#000000;fill-opacity:1;stroke:none;stroke-width:1px;stroke-linecap:butt;stroke-linejoin:miter;stroke-opacity:1;font-family:Sans"
       inkscape:export-filename="/home/jpivarski/work/hepr8.physics.tamu.edu/talks/latest/curvature_extrapolation.png"
       inkscape:export-xdpi="187.59528"
       inkscape:export-ydpi="187.59528"><tspan
         x="618.15076"
         y="395.21933"
         id="tspan6065"
         sodipodi:role="line">tracker radius = 1m = R sinθ</tspan></text>
    <text
       xml:space="preserve"
       x="601.22498"
       y="282.36221"
       sodipodi:linespacing="125%"
       id="text6073"
       style="font-size:14px;font-style:normal;font-variant:normal;font-weight:normal;font-stretch:normal;text-align:center;line-height:125%;writing-mode:lr-tb;text-anchor:middle;fill:#000000;fill-opacity:1;stroke:none;stroke-width:1px;stroke-linecap:butt;stroke-linejoin:miter;stroke-opacity:1;font-family:Sans"
       inkscape:export-filename="/home/jpivarski/work/hepr8.physics.tamu.edu/talks/latest/curvature_extrapolation.png"
       inkscape:export-xdpi="187.59528"
       inkscape:export-ydpi="187.59528"><tspan
         x="601.22498"
         y="282.36221"
         id="tspan6077"
         sodipodi:role="line">first muon station at 4m</tspan></text>
    <g
       transform="matrix(0.3640417,0,0,0.3640417,291.72259,128.93851)"
       id="g6219"
       inkscape:export-filename="/home/jpivarski/work/hepr8.physics.tamu.edu/talks/latest/curvature_extrapolation.png"
       inkscape:export-xdpi="187.59528"
       inkscape:export-ydpi="187.59528">
      <g
         transform="matrix(1.0629921,0,0,-1.0629921,-186.02362,789.27165)"
         xml:space="preserve"
         id="g6221"
         style="font-style:normal;font-variant:normal;font-weight:normal;font-stretch:normal;letter-spacing:normal;word-spacing:normal;text-anchor:start;fill:none;fill-opacity:1;stroke:#000000;stroke-linecap:butt;stroke-linejoin:miter;stroke-miterlimit:10.43299961;stroke-dasharray:none;stroke-dashoffset:0;stroke-opacity:1"><path
           d="M 472.49,394.04 L 472.49,394.07 L 472.49,394.1 L 472.48,394.11 L 472.48,394.13 L 472.48,394.14 L 472.47,394.16 L 472.47,394.18 L 472.46,394.19 L 472.45,394.21 L 472.44,394.23 L 472.43,394.26 L 472.42,394.28 L 472.4,394.3 L 472.38,394.33 L 472.36,394.36 L 472.34,394.39 L 472.31,394.42 L 472.28,394.46 L 472.27,394.48 L 472.25,394.5 L 472.23,394.52 L 472.21,394.54 L 472.19,394.56 L 472.17,394.59 L 472.15,394.61 L 472.13,394.63 L 472.11,394.66 L 472.08,394.68 L 472.06,394.71 L 472.03,394.74 L 472.01,394.77 L 471.98,394.8 L 471.95,394.83 L 471.92,394.86 L 471.89,394.89 L 471.86,394.92 L 471.82,394.96 L 471.79,394.99 L 471.75,395.03 L 471.72,395.06 L 471.68,395.1 L 471.64,395.14 C 465.41,401.42 463.82,410.83 463.82,418.45 C 463.82,427.12 465.71,435.79 471.84,442.02 C 472.49,442.61 472.49,442.71 472.49,442.86 C 472.49,443.21 472.29,443.36 471.99,443.36 C 471.49,443.36 467.01,439.97 464.07,433.64 C 461.53,428.17 460.93,422.64 460.93,418.45 C 460.93,414.57 461.48,408.54 464.22,402.91 C 467.21,396.79 471.49,393.55 471.99,393.55 C 472.29,393.55 472.49,393.7 472.49,394.04 z "
           id="path6223"
           style="fill:#000000;stroke-width:0" /><path
           d="M 489.64,437.88 L 489.64,437.93 L 489.64,437.99 L 489.64,438.04 L 489.64,438.09 L 489.64,438.14 L 489.64,438.19 L 489.64,438.23 L 489.64,438.28 L 489.64,438.32 L 489.64,438.36 L 489.64,438.4 L 489.64,438.44 L 489.64,438.48 L 489.63,438.52 L 489.63,438.55 L 489.63,438.59 L 489.62,438.62 L 489.62,438.65 L 489.61,438.71 L 489.6,438.76 L 489.58,438.81 L 489.57,438.86 L 489.55,438.9 L 489.53,438.94 L 489.5,438.98 L 489.47,439.01 L 489.44,439.03 L 489.41,439.06 L 489.37,439.08 L 489.32,439.1 L 489.3,439.11 L 489.27,439.12 L 489.25,439.12 L 489.22,439.13 L 489.19,439.14 L 489.16,439.14 L 489.13,439.15 L 489.1,439.15 L 489.07,439.16 L 489.03,439.16 L 488.99,439.16 L 488.96,439.16 L 488.92,439.17 L 488.88,439.17 L 488.84,439.17 L 488.79,439.17 L 488.75,439.17 L 488.7,439.17 L 488.65,439.18 L 488.6,439.18 L 488.55,439.18 L 488.5,439.18 C 485.41,435.99 481.03,435.99 479.43,435.99 L 479.43,434.44 C 480.43,434.44 483.37,434.44 485.96,435.74 L 485.96,409.93 C 485.96,408.14 485.81,407.54 481.33,407.54 L 479.73,407.54 L 479.73,406 C 481.48,406.15 485.81,406.15 487.8,406.15 C 489.79,406.15 494.13,406.15 495.87,406 L 495.87,407.54 L 494.28,407.54 C 489.79,407.54 489.64,408.09 489.64,409.93 L 489.64,437.88 z "
           id="path6225"
           style="fill:#000000;stroke-width:0" /><path
           d="M 543.93,417.46 L 544.06,417.46 L 544.2,417.46 L 544.34,417.46 L 544.41,417.47 L 544.48,417.47 L 544.55,417.48 L 544.62,417.49 L 544.69,417.5 L 544.75,417.51 L 544.82,417.52 L 544.88,417.54 L 544.95,417.56 L 545.01,417.58 L 545.07,417.61 L 545.13,417.63 L 545.18,417.67 L 545.23,417.7 L 545.28,417.74 L 545.33,417.78 L 545.37,417.83 L 545.39,417.85 L 545.41,417.88 L 545.43,417.9 L 545.45,417.93 L 545.46,417.96 L 545.48,417.99 L 545.49,418.02 L 545.51,418.06 L 545.52,418.09 L 545.53,418.12 L 545.54,418.16 L 545.55,418.2 L 545.55,418.24 L 545.56,418.28 L 545.56,418.32 L 545.57,418.36 L 545.57,418.41 L 545.57,418.45 C 545.57,419.45 544.62,419.45 543.93,419.45 L 516.78,419.45 C 516.08,419.45 515.13,419.45 515.13,418.45 C 515.13,417.46 516.08,417.46 516.78,417.46 L 543.93,417.46 z "
           id="path6227"
           style="fill:#000000;stroke-width:0" /><path
           d="M 578.88,425.23 L 578.79,425.22 L 578.7,425.21 L 578.61,425.2 L 578.52,425.18 L 578.44,425.17 L 578.35,425.15 L 578.27,425.13 L 578.2,425.11 L 578.12,425.09 L 578.05,425.07 L 577.98,425.04 L 577.91,425.02 L 577.84,424.99 L 577.78,424.96 L 577.66,424.9 L 577.54,424.83 L 577.44,424.76 L 577.34,424.69 L 577.24,424.61 L 577.16,424.53 L 577.08,424.44 L 577.01,424.36 L 576.95,424.27 L 576.89,424.18 L 576.83,424.09 L 576.79,424 L 576.74,423.91 L 576.71,423.82 L 576.67,423.73 L 576.65,423.64 L 576.62,423.55 L 576.6,423.46 L 576.58,423.38 L 576.57,423.3 L 576.56,423.22 L 576.55,423.14 L 576.55,423.07 L 576.54,423 L 576.54,422.94 C 576.54,421.64 577.44,420.64 578.83,420.64 C 580.13,420.64 581.12,421.49 581.12,422.98 C 581.12,426.38 577.34,428.32 573.5,428.32 C 567.28,428.32 562.7,422.94 562.7,416.76 C 562.7,410.38 567.62,405.45 573.4,405.45 C 580.08,405.45 581.67,411.43 581.67,411.93 C 581.67,412.43 581.18,412.43 581.02,412.43 C 580.58,412.43 580.48,412.23 580.38,411.93 C 578.93,407.3 575.7,406.7 573.85,406.7 C 571.21,406.7 566.83,408.84 566.83,416.86 C 566.83,424.98 570.91,427.07 573.55,427.07 C 574,427.07 577.14,427.02 578.88,425.23 z "
           id="path6229"
           style="fill:#000000;stroke-width:0" /><path
           d="M 606.46,416.66 L 606.45,417.25 L 606.4,417.84 L 606.33,418.42 L 606.24,418.99 L 606.11,419.55 L 605.96,420.1 L 605.79,420.64 L 605.59,421.17 L 605.37,421.69 L 605.12,422.19 L 604.86,422.68 L 604.57,423.15 L 604.26,423.61 L 603.93,424.05 L 603.58,424.47 L 603.22,424.88 L 602.83,425.27 L 602.43,425.63 L 602.02,425.98 L 601.58,426.31 L 601.14,426.61 L 600.68,426.9 L 600.2,427.16 L 599.72,427.39 L 599.22,427.6 L 598.71,427.79 L 598.19,427.95 L 597.66,428.08 L 597.12,428.18 L 596.57,428.26 L 596.01,428.3 L 595.45,428.32 L 595.4,427.22 C 597.59,427.22 599.74,426.12 601.03,423.98 C 602.33,421.84 602.33,418.95 602.33,417.06 C 602.33,415.27 602.33,412.57 601.23,410.38 C 600.14,408.14 597.95,406.7 595.45,406.7 L 595.45,406.7 C 593.31,406.7 591.12,407.74 589.77,410.04 C 588.53,412.23 588.53,415.27 588.53,417.06 C 588.53,419 588.53,421.69 589.73,423.88 C 591.07,426.18 593.41,427.22 595.4,427.22 L 595.45,428.32 C 589.23,428.32 584.4,422.89 584.4,416.66 C 584.4,410.23 589.57,405.45 595.4,405.45 C 601.43,405.45 606.46,410.33 606.46,416.66 z "
           id="path6231"
           style="fill:#000000;stroke-width:0" /><path
           d="M 618.36,415.66 L 618.47,415.64 L 618.6,415.62 L 618.74,415.59 L 618.9,415.56 L 619.07,415.52 L 619.25,415.47 L 619.43,415.42 L 619.63,415.37 L 619.84,415.31 L 620.05,415.24 L 620.26,415.16 L 620.48,415.07 L 620.7,414.98 L 620.92,414.88 L 621.14,414.76 L 621.36,414.64 L 621.58,414.51 L 621.79,414.37 L 621.99,414.22 L 622.19,414.06 L 622.38,413.88 L 622.56,413.69 L 622.73,413.49 L 622.89,413.28 L 623.03,413.06 L 623.1,412.94 L 623.16,412.82 L 623.22,412.69 L 623.27,412.57 L 623.32,412.44 L 623.37,412.3 L 623.41,412.16 L 623.44,412.02 L 623.47,411.87 L 623.5,411.72 L 623.52,411.57 L 623.53,411.41 L 623.54,411.25 L 623.54,411.08 C 623.54,408.54 621.8,406.55 617.91,406.55 C 613.73,406.55 611.93,409.39 610.99,413.62 C 610.84,414.27 610.79,414.47 610.29,414.47 C 609.65,414.47 609.65,414.12 609.65,413.22 L 609.65,406.65 C 609.65,405.8 609.65,405.45 610.19,405.45 C 610.44,405.45 610.49,405.5 611.44,406.45 C 611.53,406.55 611.53,406.65 612.43,407.59 C 614.62,405.5 616.87,405.45 617.91,405.45 C 623.64,405.45 625.93,408.79 625.93,412.38 C 625.93,415.02 624.44,416.51 623.84,417.11 C 622.2,418.7 620.25,419.1 618.16,419.5 C 615.37,420.05 612.03,420.7 612.03,423.59 C 612.03,425.33 613.33,427.37 617.61,427.37 C 623.09,427.37 623.34,422.89 623.44,421.34 C 623.49,420.89 623.94,420.89 624.04,420.89 C 624.69,420.89 624.69,421.14 624.69,422.09 L 624.69,427.12 C 624.69,427.97 624.69,428.32 624.14,428.32 C 623.89,428.32 623.79,428.32 623.15,427.72 C 622.99,427.52 622.5,427.07 622.3,426.92 C 620.4,428.32 618.36,428.32 617.61,428.32 C 611.53,428.32 609.65,424.98 609.65,422.19 C 609.65,420.45 610.44,419.05 611.78,417.96 C 613.38,416.66 614.77,416.36 618.36,415.66 z "
           id="path6233"
           style="fill:#000000;stroke-width:0" /><path
           d="M 658.66,430.91 L 658.66,431.22 L 658.65,431.56 L 658.64,431.92 L 658.62,432.29 L 658.59,432.67 L 658.55,433.07 L 658.5,433.48 L 658.44,433.89 L 658.38,434.31 L 658.3,434.73 L 658.21,435.16 L 658.11,435.58 L 658,436.01 L 657.87,436.43 L 657.74,436.84 L 657.58,437.24 L 657.41,437.64 L 657.23,438.03 L 657.03,438.4 L 656.81,438.75 L 656.58,439.09 L 656.33,439.41 L 656.06,439.71 L 655.77,439.98 L 655.46,440.23 L 655.29,440.35 L 655.13,440.46 L 654.95,440.56 L 654.78,440.65 L 654.59,440.74 L 654.4,440.81 L 654.21,440.88 L 654.01,440.94 L 653.8,441 L 653.59,441.04 L 653.38,441.07 L 653.15,441.1 L 652.92,441.11 L 652.69,441.12 L 652.64,440.02 C 655.08,440.02 655.38,436.84 655.38,434 C 655.38,431.55 654.98,429.01 653.78,424.08 L 643.37,424.08 C 644.22,427.27 645.22,431.25 647.21,434.79 C 648.55,437.23 650.4,440.02 652.64,440.02 L 652.69,441.12 C 645.76,441.12 638.09,427.07 638.09,415.66 C 638.09,410.98 639.53,405.45 644.07,405.45 L 644.07,406.55 C 642.43,406.55 641.38,407.99 641.38,412.62 C 641.38,414.72 641.68,417.61 642.97,422.49 L 653.34,422.49 C 652.78,420.2 651.74,415.96 649.85,412.38 C 648.1,408.99 646.21,406.55 644.07,406.55 L 644.07,405.45 C 651.09,405.45 658.66,419.75 658.66,430.91 z "
           id="path6235"
           style="fill:#000000;stroke-width:0" /><path
           d="M 674.13,401.82 L 674.12,401.76 L 674.1,401.69 L 674.08,401.62 L 674.06,401.54 L 674.04,401.47 L 674.02,401.39 L 673.98,401.23 L 673.94,401.07 L 673.9,400.91 L 673.86,400.75 L 673.84,400.68 L 673.82,400.6 L 673.8,400.52 L 673.79,400.45 L 673.77,400.38 L 673.75,400.31 L 673.74,400.24 L 673.72,400.18 L 673.71,400.12 L 673.7,400.06 L 673.69,400.01 L 673.67,399.96 L 673.67,399.92 L 673.66,399.88 L 673.65,399.84 L 673.65,399.81 L 673.65,399.79 L 673.65,399.77 C 673.65,399 674.27,398.65 674.83,398.65 C 675.46,398.65 676.02,399.11 676.19,399.42 C 676.36,399.73 676.65,400.85 676.82,401.58 C 676.99,402.24 677.38,403.85 677.59,404.72 C 677.79,405.48 678,406.25 678.18,407.05 C 678.56,408.55 678.56,408.62 679.26,409.7 C 680.38,411.41 682.12,413.4 684.84,413.4 C 686.79,413.4 686.9,411.8 686.9,410.96 C 686.9,408.87 685.4,405 684.84,403.53 C 684.45,402.56 684.32,402.24 684.32,401.65 C 684.32,399.8 685.85,398.65 687.63,398.65 C 691.11,398.65 692.65,403.46 692.65,403.98 C 692.65,404.44 692.2,404.44 692.09,404.44 C 691.6,404.44 691.57,404.23 691.43,403.85 C 690.62,401.06 689.13,399.63 687.73,399.63 C 687,399.63 686.86,400.12 686.86,400.85 C 686.86,401.65 687.03,402.1 687.66,403.67 C 688.08,404.75 689.51,408.45 689.51,410.4 C 689.51,410.96 689.51,412.43 688.22,413.44 C 687.63,413.89 686.62,414.38 684.98,414.38 C 681.84,414.38 679.92,412.32 678.8,410.86 C 678.53,413.82 676.05,414.38 674.27,414.38 C 671.38,414.38 669.43,412.6 668.38,411.2 C 668.14,413.61 666.08,414.38 664.65,414.38 C 663.15,414.38 662.35,413.3 661.9,412.5 C 661.13,411.2 660.64,409.21 660.64,409.04 C 660.64,408.59 661.13,408.59 661.23,408.59 C 661.72,408.59 661.75,408.7 662,409.64 C 662.52,411.69 663.18,413.4 664.54,413.4 C 665.45,413.4 665.7,412.63 665.7,411.69 C 665.7,411.03 665.38,409.74 665.14,408.8 C 664.9,407.86 664.54,406.43 664.37,405.66 L 663.25,401.2 C 663.11,400.74 662.91,399.87 662.91,399.77 C 662.91,399 663.53,398.65 664.09,398.65 C 664.72,398.65 665.28,399.11 665.45,399.42 C 665.62,399.73 665.9,400.85 666.08,401.58 C 666.25,402.24 666.64,403.85 666.84,404.72 C 667.05,405.48 667.27,406.25 667.44,407.05 C 667.82,408.48 667.89,408.76 668.9,410.19 C 669.88,411.59 671.52,413.4 674.13,413.4 C 676.16,413.4 676.19,411.62 676.19,410.96 C 676.19,410.09 676.09,409.64 675.6,407.68 L 674.13,401.82 z "
           id="path6237"
           style="fill:#000000;stroke-width:0" /><path
           d="M 711.4,418.45 L 711.39,418.82 L 711.39,419.21 L 711.38,419.6 L 711.37,420.01 L 711.33,420.85 L 711.27,421.73 L 711.18,422.65 L 711.08,423.59 L 710.94,424.57 L 710.78,425.57 L 710.58,426.59 L 710.35,427.63 L 710.08,428.68 L 709.78,429.74 L 709.43,430.8 L 709.04,431.87 L 708.82,432.4 L 708.6,432.94 L 708.36,433.47 L 708.11,434 C 705.12,440.12 700.84,443.36 700.34,443.36 C 700.04,443.36 699.84,443.16 699.84,442.86 C 699.84,442.71 699.84,442.61 700.78,441.71 C 705.67,436.79 708.51,428.86 708.51,418.45 C 708.51,409.93 706.66,401.17 700.49,394.89 C 699.84,394.29 699.84,394.2 699.84,394.04 C 699.84,393.75 700.04,393.55 700.34,393.55 C 700.84,393.55 705.32,396.93 708.26,403.26 C 710.8,408.74 711.4,414.27 711.4,418.45 z "
           id="path6239"
           style="fill:#000000;stroke-width:0" /><path
           d="M 741.85,422.94 L 742.33,423.05 L 742.8,423.17 L 743.29,423.31 L 743.77,423.46 L 744.25,423.62 L 744.73,423.8 L 745.21,423.99 L 745.69,424.19 L 746.16,424.41 L 746.62,424.64 L 747.08,424.88 L 747.53,425.13 L 747.97,425.4 L 748.4,425.68 L 748.82,425.97 L 749.22,426.27 L 749.61,426.58 L 749.98,426.9 L 750.33,427.24 L 750.67,427.59 L 750.99,427.94 L 751.28,428.31 L 751.56,428.69 L 751.81,429.08 L 752.03,429.48 L 752.23,429.89 L 752.4,430.31 L 752.55,430.74 L 752.66,431.18 L 752.74,431.63 L 752.79,432.08 L 752.81,432.55 C 752.81,436.84 748.33,440.02 741.8,440.02 L 727.6,440.02 C 726.61,440.02 726.16,440.02 726.16,439.03 C 726.16,438.48 726.61,438.48 727.56,438.48 C 727.66,438.48 728.6,438.48 729.45,438.38 C 730.35,438.28 730.79,438.23 730.79,437.58 C 730.79,437.38 730.75,437.23 730.59,436.64 L 723.92,409.89 C 723.42,407.94 723.32,407.54 719.39,407.54 C 718.49,407.54 718.04,407.54 718.04,406.55 C 718.04,406 718.64,406 718.74,406 C 720.13,406 723.62,406.15 725.02,406.15 C 726.41,406.15 729.95,406 731.34,406 C 731.74,406 732.34,406 732.34,407 C 732.34,407.54 731.89,407.54 730.95,407.54 C 729.1,407.54 727.71,407.54 727.71,408.44 C 727.71,408.74 727.8,408.99 727.85,409.29 L 731.15,422.49 L 737.07,422.49 L 737.02,423.59 L 731.44,423.59 L 734.68,436.59 C 734.98,437.78 735.13,438.28 736.07,438.43 C 736.52,438.48 738.12,438.48 739.11,438.48 C 742.65,438.48 748.18,438.48 748.18,433.55 C 748.18,431.85 747.38,428.41 745.44,426.47 C 744.15,425.18 741.5,423.59 737.02,423.59 L 737.07,422.49 C 741.6,422.49 742.5,419.7 742.5,417.96 C 742.5,417.21 742.1,415.66 741.8,414.52 C 741.45,413.12 741.01,411.28 741.01,410.29 C 741.01,404.9 746.98,404.9 747.63,404.9 C 751.87,404.9 753.61,409.93 753.61,410.63 C 753.61,411.23 753.06,411.23 753.01,411.23 C 752.56,411.23 752.47,410.88 752.36,410.53 C 751.12,406.85 748.98,406 747.83,406 C 746.19,406 745.84,407.1 745.84,409.04 C 745.84,410.58 746.14,413.12 746.34,414.72 C 746.44,415.41 746.53,416.36 746.53,417.06 C 746.53,420.89 743.2,422.44 741.85,422.94 z "
           id="path6241"
           style="fill:#000000;stroke-width:0" /></g>    </g>
    <g
       transform="matrix(0.3972378,0,0,0.3972378,623.42855,206.14121)"
       id="g6299"
       inkscape:export-filename="/home/jpivarski/work/hepr8.physics.tamu.edu/talks/latest/curvature_extrapolation.png"
       inkscape:export-xdpi="187.59528"
       inkscape:export-ydpi="187.59528">
      <g
         transform="matrix(1.0629921,0,0,-1.0629921,-186.02362,789.27165)"
         xml:space="preserve"
         id="g6301"
         style="font-style:normal;font-variant:normal;font-weight:normal;font-stretch:normal;letter-spacing:normal;word-spacing:normal;text-anchor:start;fill:none;fill-opacity:1;stroke:#000000;stroke-linecap:butt;stroke-linejoin:miter;stroke-miterlimit:10.43299961;stroke-dasharray:none;stroke-dashoffset:0;stroke-opacity:1"><path
           d="M 690.49,394.04 L 690.49,394.07 L 690.49,394.1 L 690.48,394.11 L 690.48,394.13 L 690.48,394.14 L 690.47,394.16 L 690.47,394.18 L 690.46,394.19 L 690.45,394.21 L 690.44,394.23 L 690.43,394.26 L 690.42,394.28 L 690.4,394.3 L 690.38,394.33 L 690.36,394.36 L 690.34,394.39 L 690.31,394.42 L 690.28,394.46 L 690.27,394.48 L 690.25,394.5 L 690.23,394.52 L 690.21,394.54 L 690.19,394.56 L 690.17,394.59 L 690.15,394.61 L 690.13,394.63 L 690.11,394.66 L 690.08,394.68 L 690.06,394.71 L 690.03,394.74 L 690.01,394.77 L 689.98,394.8 L 689.95,394.83 L 689.92,394.86 L 689.89,394.89 L 689.86,394.92 L 689.82,394.96 L 689.79,394.99 L 689.75,395.03 L 689.72,395.06 L 689.68,395.1 L 689.64,395.14 C 683.41,401.42 681.82,410.83 681.82,418.45 C 681.82,427.12 683.72,435.79 689.84,442.02 C 690.49,442.61 690.49,442.71 690.49,442.86 C 690.49,443.21 690.29,443.36 689.99,443.36 C 689.49,443.36 685.01,439.97 682.07,433.64 C 679.53,428.17 678.93,422.64 678.93,418.45 C 678.93,414.57 679.48,408.54 682.22,402.91 C 685.21,396.79 689.49,393.55 689.99,393.55 C 690.29,393.55 690.49,393.7 690.49,394.04 z "
           id="path6323"
           style="fill:#000000;stroke-width:0" /><path
           d="M 708.65,437.88 L 708.65,437.93 L 708.64,437.99 L 708.64,438.04 L 708.64,438.09 L 708.64,438.14 L 708.64,438.19 L 708.64,438.23 L 708.64,438.28 L 708.64,438.32 L 708.64,438.36 L 708.64,438.4 L 708.64,438.44 L 708.64,438.48 L 708.63,438.52 L 708.63,438.55 L 708.63,438.59 L 708.62,438.62 L 708.62,438.65 L 708.61,438.71 L 708.6,438.76 L 708.58,438.81 L 708.57,438.86 L 708.55,438.9 L 708.53,438.94 L 708.5,438.98 L 708.47,439.01 L 708.44,439.03 L 708.41,439.06 L 708.37,439.08 L 708.32,439.1 L 708.3,439.11 L 708.27,439.12 L 708.25,439.12 L 708.22,439.13 L 708.19,439.14 L 708.16,439.14 L 708.13,439.15 L 708.1,439.15 L 708.07,439.16 L 708.03,439.16 L 707.99,439.16 L 707.96,439.16 L 707.92,439.17 L 707.88,439.17 L 707.84,439.17 L 707.79,439.17 L 707.75,439.17 L 707.7,439.17 L 707.65,439.18 L 707.6,439.18 L 707.55,439.18 L 707.5,439.18 C 704.41,435.99 700.03,435.99 698.43,435.99 L 698.43,434.44 C 699.43,434.44 702.37,434.44 704.96,435.74 L 704.96,409.93 C 704.96,408.14 704.81,407.54 700.33,407.54 L 698.73,407.54 L 698.73,406 C 700.48,406.15 704.81,406.15 706.8,406.15 C 708.79,406.15 713.13,406.15 714.87,406 L 714.87,407.54 L 713.28,407.54 C 708.79,407.54 708.65,408.09 708.65,409.93 L 708.65,437.88 z "
           id="path6325"
           style="fill:#000000;stroke-width:0" /><path
           d="M 762.93,417.46 L 763.06,417.46 L 763.2,417.46 L 763.34,417.46 L 763.41,417.47 L 763.48,417.47 L 763.55,417.48 L 763.62,417.49 L 763.69,417.5 L 763.75,417.51 L 763.82,417.52 L 763.88,417.54 L 763.95,417.56 L 764.01,417.58 L 764.07,417.61 L 764.13,417.63 L 764.18,417.67 L 764.23,417.7 L 764.28,417.74 L 764.33,417.78 L 764.37,417.83 L 764.39,417.85 L 764.41,417.88 L 764.43,417.9 L 764.45,417.93 L 764.46,417.96 L 764.48,417.99 L 764.49,418.02 L 764.51,418.06 L 764.52,418.09 L 764.53,418.12 L 764.54,418.16 L 764.55,418.2 L 764.55,418.24 L 764.56,418.28 L 764.56,418.32 L 764.57,418.36 L 764.57,418.41 L 764.57,418.45 C 764.57,419.45 763.62,419.45 762.93,419.45 L 735.78,419.45 C 735.08,419.45 734.13,419.45 734.13,418.45 C 734.13,417.46 735.08,417.46 735.78,417.46 L 762.93,417.46 z "
           id="path6327"
           style="fill:#000000;stroke-width:0" /><path
           d="M 797.88,425.23 L 797.79,425.22 L 797.7,425.21 L 797.61,425.2 L 797.52,425.18 L 797.44,425.17 L 797.35,425.15 L 797.27,425.13 L 797.2,425.11 L 797.12,425.09 L 797.05,425.07 L 796.98,425.04 L 796.91,425.02 L 796.84,424.99 L 796.78,424.96 L 796.66,424.9 L 796.54,424.83 L 796.44,424.76 L 796.34,424.69 L 796.24,424.61 L 796.16,424.53 L 796.08,424.44 L 796.01,424.36 L 795.95,424.27 L 795.89,424.18 L 795.83,424.09 L 795.79,424 L 795.74,423.91 L 795.71,423.82 L 795.67,423.73 L 795.65,423.64 L 795.62,423.55 L 795.6,423.46 L 795.58,423.38 L 795.57,423.3 L 795.56,423.22 L 795.55,423.14 L 795.55,423.07 L 795.54,423 L 795.54,422.94 C 795.54,421.64 796.44,420.64 797.83,420.64 C 799.13,420.64 800.12,421.49 800.12,422.98 C 800.12,426.38 796.34,428.32 792.5,428.32 C 786.28,428.32 781.7,422.94 781.7,416.76 C 781.7,410.38 786.62,405.45 792.4,405.45 C 799.08,405.45 800.67,411.43 800.67,411.93 C 800.67,412.43 800.18,412.43 800.02,412.43 C 799.58,412.43 799.48,412.23 799.38,411.93 C 797.93,407.3 794.7,406.7 792.85,406.7 C 790.21,406.7 785.83,408.84 785.83,416.86 C 785.83,424.98 789.91,427.07 792.55,427.07 C 793,427.07 796.14,427.02 797.88,425.23 z "
           id="path6329"
           style="fill:#000000;stroke-width:0" /><path
           d="M 825.46,416.66 L 825.45,417.25 L 825.4,417.84 L 825.33,418.42 L 825.24,418.99 L 825.11,419.55 L 824.96,420.1 L 824.79,420.64 L 824.59,421.17 L 824.37,421.69 L 824.12,422.19 L 823.86,422.68 L 823.57,423.15 L 823.26,423.61 L 822.93,424.05 L 822.58,424.47 L 822.22,424.88 L 821.83,425.27 L 821.43,425.63 L 821.02,425.98 L 820.58,426.31 L 820.14,426.61 L 819.68,426.9 L 819.2,427.16 L 818.72,427.39 L 818.22,427.6 L 817.71,427.79 L 817.19,427.95 L 816.66,428.08 L 816.12,428.18 L 815.57,428.26 L 815.01,428.3 L 814.45,428.32 L 814.4,427.22 C 816.59,427.22 818.74,426.12 820.03,423.98 C 821.33,421.84 821.33,418.95 821.33,417.06 C 821.33,415.27 821.33,412.57 820.23,410.38 C 819.14,408.14 816.95,406.7 814.45,406.7 L 814.45,406.7 C 812.31,406.7 810.12,407.74 808.77,410.04 C 807.53,412.23 807.53,415.27 807.53,417.06 C 807.53,419 807.53,421.69 808.73,423.88 C 810.07,426.18 812.41,427.22 814.4,427.22 L 814.45,428.32 C 808.23,428.32 803.4,422.89 803.4,416.66 C 803.4,410.23 808.57,405.45 814.4,405.45 C 820.43,405.45 825.46,410.33 825.46,416.66 z "
           id="path6331"
           style="fill:#000000;stroke-width:0" /><path
           d="M 837.36,415.66 L 837.47,415.64 L 837.6,415.62 L 837.74,415.59 L 837.9,415.56 L 838.07,415.52 L 838.25,415.47 L 838.43,415.42 L 838.63,415.37 L 838.84,415.31 L 839.05,415.24 L 839.26,415.16 L 839.48,415.07 L 839.7,414.98 L 839.92,414.88 L 840.14,414.76 L 840.36,414.64 L 840.58,414.51 L 840.79,414.37 L 840.99,414.22 L 841.19,414.06 L 841.38,413.88 L 841.56,413.69 L 841.73,413.49 L 841.89,413.28 L 842.03,413.06 L 842.1,412.94 L 842.16,412.82 L 842.22,412.69 L 842.27,412.57 L 842.32,412.44 L 842.37,412.3 L 842.41,412.16 L 842.44,412.02 L 842.47,411.87 L 842.5,411.72 L 842.52,411.57 L 842.53,411.41 L 842.54,411.25 L 842.54,411.08 C 842.54,408.54 840.8,406.55 836.91,406.55 C 832.73,406.55 830.93,409.39 829.99,413.62 C 829.84,414.27 829.79,414.47 829.29,414.47 C 828.65,414.47 828.65,414.12 828.65,413.22 L 828.65,406.65 C 828.65,405.8 828.65,405.45 829.19,405.45 C 829.44,405.45 829.49,405.5 830.44,406.45 C 830.53,406.55 830.53,406.65 831.43,407.59 C 833.62,405.5 835.87,405.45 836.91,405.45 C 842.64,405.45 844.93,408.79 844.93,412.38 C 844.93,415.02 843.44,416.51 842.84,417.11 C 841.2,418.7 839.25,419.1 837.16,419.5 C 834.37,420.05 831.03,420.7 831.03,423.59 C 831.03,425.33 832.33,427.37 836.61,427.37 C 842.09,427.37 842.34,422.89 842.44,421.34 C 842.49,420.89 842.94,420.89 843.04,420.89 C 843.69,420.89 843.69,421.14 843.69,422.09 L 843.69,427.12 C 843.69,427.97 843.69,428.32 843.14,428.32 C 842.89,428.32 842.79,428.32 842.15,427.72 C 841.99,427.52 841.5,427.07 841.3,426.92 C 839.4,428.32 837.36,428.32 836.61,428.32 C 830.53,428.32 828.65,424.98 828.65,422.19 C 828.65,420.45 829.44,419.05 830.78,417.96 C 832.38,416.66 833.77,416.36 837.36,415.66 z "
           id="path6333"
           style="fill:#000000;stroke-width:0" /><path
           d="M 877.66,430.91 L 877.66,431.22 L 877.65,431.56 L 877.64,431.92 L 877.62,432.29 L 877.59,432.67 L 877.55,433.07 L 877.5,433.48 L 877.44,433.89 L 877.38,434.31 L 877.3,434.73 L 877.21,435.16 L 877.11,435.58 L 877,436.01 L 876.87,436.43 L 876.74,436.84 L 876.58,437.24 L 876.41,437.64 L 876.23,438.03 L 876.03,438.4 L 875.81,438.75 L 875.58,439.09 L 875.33,439.41 L 875.06,439.71 L 874.77,439.98 L 874.46,440.23 L 874.29,440.35 L 874.13,440.46 L 873.95,440.56 L 873.78,440.65 L 873.59,440.74 L 873.4,440.81 L 873.21,440.88 L 873.01,440.94 L 872.8,441 L 872.59,441.04 L 872.38,441.07 L 872.15,441.1 L 871.92,441.11 L 871.69,441.12 L 871.64,440.02 C 874.08,440.02 874.38,436.84 874.38,434 C 874.38,431.55 873.98,429.01 872.78,424.08 L 862.37,424.08 C 863.22,427.27 864.22,431.25 866.21,434.79 C 867.55,437.23 869.4,440.02 871.64,440.02 L 871.69,441.12 C 864.76,441.12 857.09,427.07 857.09,415.66 C 857.09,410.98 858.53,405.45 863.07,405.45 L 863.07,406.55 C 861.43,406.55 860.38,407.99 860.38,412.62 C 860.38,414.72 860.68,417.61 861.97,422.49 L 872.34,422.49 C 871.78,420.2 870.74,415.96 868.85,412.38 C 867.1,408.99 865.21,406.55 863.07,406.55 L 863.07,405.45 C 870.09,405.45 877.66,419.75 877.66,430.91 z "
           id="path6335"
           style="fill:#000000;stroke-width:0" /><path
           d="M 886.58,412.77 L 890.13,412.77 C 890.8,412.77 891.25,412.77 891.25,413.54 C 891.25,414.03 890.8,414.03 890.2,414.03 L 886.89,414.03 L 888.18,419.19 C 888.22,419.36 888.28,419.54 888.28,419.68 C 888.28,420.3 887.8,420.79 887.1,420.79 C 886.23,420.79 885.71,420.2 885.46,419.29 C 885.22,418.42 885.67,420.1 884.14,414.03 L 880.58,414.03 C 879.92,414.03 879.47,414.03 879.47,413.26 C 879.47,412.77 879.88,412.77 880.51,412.77 L 883.82,412.77 C 883.16,410.02 882.47,407.3 881.77,404.54 C 881.56,403.67 881.24,402.42 881.24,401.96 C 881.24,399.91 882.98,398.65 884.97,398.65 C 888.84,398.65 891.04,403.53 891.04,403.98 C 891.04,404.44 890.59,404.44 890.48,404.44 C 890.07,404.44 890.03,404.37 889.75,403.78 C 888.77,401.58 887,399.63 885.08,399.63 C 884.35,399.63 883.86,400.08 883.86,401.34 C 883.86,401.68 884,402.42 884.07,402.77 L 886.58,412.77 z "
           id="path6337"
           style="fill:#000000;stroke-width:0" /><path
           d="M 910.4,418.45 L 910.39,418.82 L 910.39,419.21 L 910.38,419.6 L 910.37,420.01 L 910.33,420.85 L 910.27,421.73 L 910.18,422.65 L 910.08,423.59 L 909.94,424.57 L 909.78,425.57 L 909.58,426.59 L 909.35,427.63 L 909.08,428.68 L 908.78,429.74 L 908.43,430.8 L 908.04,431.87 L 907.82,432.4 L 907.6,432.94 L 907.36,433.47 L 907.11,434 C 904.12,440.12 899.84,443.36 899.34,443.36 C 899.04,443.36 898.84,443.16 898.84,442.86 C 898.84,442.71 898.84,442.61 899.78,441.71 C 904.67,436.79 907.51,428.86 907.51,418.45 C 907.51,409.93 905.66,401.17 899.49,394.89 C 898.84,394.29 898.84,394.2 898.84,394.04 C 898.84,393.75 899.04,393.55 899.34,393.55 C 899.84,393.55 904.32,396.93 907.26,403.26 C 909.8,408.74 910.4,414.27 910.4,418.45 z "
           id="path6339"
           style="fill:#000000;stroke-width:0" /><path
           d="M 940.85,422.94 L 941.33,423.05 L 941.8,423.17 L 942.29,423.31 L 942.77,423.46 L 943.25,423.62 L 943.73,423.8 L 944.21,423.99 L 944.69,424.19 L 945.16,424.41 L 945.62,424.64 L 946.08,424.88 L 946.53,425.13 L 946.97,425.4 L 947.4,425.68 L 947.82,425.97 L 948.22,426.27 L 948.61,426.58 L 948.98,426.9 L 949.33,427.24 L 949.67,427.59 L 949.99,427.94 L 950.28,428.31 L 950.56,428.69 L 950.81,429.08 L 951.03,429.48 L 951.23,429.89 L 951.4,430.31 L 951.55,430.74 L 951.66,431.18 L 951.74,431.63 L 951.79,432.08 L 951.81,432.55 C 951.81,436.84 947.33,440.02 940.8,440.02 L 926.6,440.02 C 925.61,440.02 925.16,440.02 925.16,439.03 C 925.16,438.48 925.61,438.48 926.56,438.48 C 926.66,438.48 927.6,438.48 928.45,438.38 C 929.35,438.28 929.79,438.23 929.79,437.58 C 929.79,437.38 929.75,437.23 929.59,436.64 L 922.92,409.89 C 922.42,407.94 922.32,407.54 918.39,407.54 C 917.49,407.54 917.04,407.54 917.04,406.55 C 917.04,406 917.64,406 917.74,406 C 919.13,406 922.62,406.15 924.02,406.15 C 925.41,406.15 928.95,406 930.34,406 C 930.74,406 931.34,406 931.34,407 C 931.34,407.54 930.89,407.54 929.95,407.54 C 928.1,407.54 926.71,407.54 926.71,408.44 C 926.71,408.74 926.8,408.99 926.85,409.29 L 930.15,422.49 L 936.07,422.49 L 936.02,423.59 L 930.44,423.59 L 933.68,436.59 C 933.98,437.78 934.13,438.28 935.07,438.43 C 935.52,438.48 937.12,438.48 938.11,438.48 C 941.65,438.48 947.18,438.48 947.18,433.55 C 947.18,431.85 946.38,428.41 944.44,426.47 C 943.15,425.18 940.5,423.59 936.02,423.59 L 936.07,422.49 C 940.6,422.49 941.5,419.7 941.5,417.96 C 941.5,417.21 941.1,415.66 940.8,414.52 C 940.45,413.12 940.01,411.28 940.01,410.29 C 940.01,404.9 945.98,404.9 946.63,404.9 C 950.87,404.9 952.61,409.93 952.61,410.63 C 952.61,411.23 952.06,411.23 952.01,411.23 C 951.56,411.23 951.47,410.88 951.36,410.53 C 950.12,406.85 947.98,406 946.83,406 C 945.19,406 944.84,407.1 944.84,409.04 C 944.84,410.58 945.14,413.12 945.34,414.72 C 945.44,415.41 945.53,416.36 945.53,417.06 C 945.53,420.89 942.2,422.44 940.85,422.94 z "
           id="path6341"
           style="fill:#000000;stroke-width:0" /></g>    </g>
    <path
       id="path6392"
       d="M 505.71429,413.07647 L 330.71429,435.93361"
       style="color:#000000;fill:none;fill-opacity:1;fill-rule:nonzero;stroke:#000000;stroke-width:2;stroke-linecap:butt;stroke-linejoin:miter;marker:none;marker-start:none;marker-mid:none;marker-end:none;stroke-miterlimit:4;stroke-dasharray:6, 6;stroke-dashoffset:0;stroke-opacity:1;visibility:visible;display:inline;overflow:visible;enable-background:accumulate"
       inkscape:export-filename="/home/jpivarski/work/hepr8.physics.tamu.edu/talks/latest/curvature_extrapolation.png"
       inkscape:export-xdpi="187.59528"
       inkscape:export-ydpi="187.59528" />
    <path
       sodipodi:open="true"
       sodipodi:ry="37.857143"
       sodipodi:rx="37.857143"
       sodipodi:end="6.2855906"
       sodipodi:start="5.1596182"
       d="M 344.94348,401.79977 A 37.857143,37.857143 0 0 1 366.42848,436.02468"
       sodipodi:cy="435.93362"
       sodipodi:cx="328.57144"
       id="path7365"
       style="color:#000000;fill:none;fill-opacity:1;fill-rule:nonzero;stroke:#000000;stroke-width:2;stroke-linecap:butt;stroke-linejoin:miter;marker:none;marker-start:none;marker-mid:none;marker-end:none;stroke-miterlimit:4;stroke-dasharray:none;stroke-dashoffset:0;stroke-opacity:1;visibility:visible;display:inline;overflow:visible;enable-background:accumulate"
       sodipodi:type="arc"
       inkscape:export-filename="/home/jpivarski/work/hepr8.physics.tamu.edu/talks/latest/curvature_extrapolation.png"
       inkscape:export-xdpi="187.59528"
       inkscape:export-ydpi="187.59528" />
    <g
       transform="matrix(0.4304102,0,0,0.4304102,233.54519,252.47638)"
       id="g7543"
       inkscape:export-filename="/home/jpivarski/work/hepr8.physics.tamu.edu/talks/latest/curvature_extrapolation.png"
       inkscape:export-xdpi="187.59528"
       inkscape:export-ydpi="187.59528">
      <g
         xml:space="preserve"
         style="font-style:normal;font-variant:normal;font-weight:normal;font-stretch:normal;letter-spacing:normal;word-spacing:normal;text-anchor:start;fill:none;fill-opacity:1;stroke:#000000;stroke-linecap:butt;stroke-linejoin:miter;stroke-miterlimit:10.43299961;stroke-dasharray:none;stroke-dashoffset:0;stroke-opacity:1"
         transform="matrix(1.0629921,0,0,-1.0629921,-186.02362,789.27165)"
         id="g7545"><path
           style="fill:#000000;stroke-width:0"
           d="M 478.66,430.91 L 478.66,431.22 L 478.65,431.56 L 478.64,431.92 L 478.62,432.29 L 478.59,432.67 L 478.55,433.07 L 478.5,433.48 L 478.44,433.89 L 478.38,434.31 L 478.3,434.73 L 478.21,435.16 L 478.11,435.58 L 478,436.01 L 477.87,436.43 L 477.74,436.84 L 477.58,437.24 L 477.41,437.64 L 477.23,438.03 L 477.03,438.4 L 476.81,438.75 L 476.58,439.09 L 476.33,439.41 L 476.06,439.71 L 475.77,439.98 L 475.46,440.23 L 475.29,440.35 L 475.13,440.46 L 474.95,440.56 L 474.78,440.65 L 474.59,440.74 L 474.4,440.81 L 474.21,440.88 L 474.01,440.94 L 473.8,441 L 473.59,441.04 L 473.38,441.07 L 473.15,441.1 L 472.92,441.11 L 472.69,441.12 L 472.64,440.02 C 475.08,440.02 475.38,436.84 475.38,434 C 475.38,431.55 474.98,429.01 473.79,424.08 L 463.37,424.08 C 464.22,427.27 465.21,431.25 467.21,434.79 C 468.55,437.23 470.39,440.02 472.64,440.02 L 472.69,441.12 C 465.76,441.12 458.09,427.07 458.09,415.66 C 458.09,410.98 459.54,405.45 464.07,405.45 L 464.07,406.55 C 462.43,406.55 461.38,407.99 461.38,412.62 C 461.38,414.72 461.68,417.61 462.97,422.49 L 473.34,422.49 C 472.79,420.2 471.74,415.96 469.85,412.38 C 468.11,408.99 466.21,406.55 464.07,406.55 L 464.07,405.45 C 471.09,405.45 478.66,419.75 478.66,430.91 z "
           id="path7547" /><path
           style="fill:#000000;stroke-width:0"
           d="M 494.13,401.82 L 494.12,401.76 L 494.1,401.69 L 494.08,401.62 L 494.06,401.54 L 494.04,401.47 L 494.02,401.39 L 493.98,401.23 L 493.94,401.07 L 493.9,400.91 L 493.86,400.75 L 493.84,400.68 L 493.82,400.6 L 493.8,400.52 L 493.79,400.45 L 493.77,400.38 L 493.75,400.31 L 493.74,400.24 L 493.72,400.18 L 493.71,400.12 L 493.7,400.06 L 493.69,400.01 L 493.67,399.96 L 493.67,399.92 L 493.66,399.88 L 493.65,399.84 L 493.65,399.81 L 493.65,399.79 L 493.64,399.77 C 493.64,399 494.27,398.65 494.83,398.65 C 495.46,398.65 496.02,399.11 496.19,399.42 C 496.36,399.73 496.64,400.85 496.82,401.58 C 496.99,402.24 497.38,403.85 497.59,404.72 C 497.79,405.48 498,406.25 498.18,407.05 C 498.56,408.55 498.56,408.62 499.26,409.7 C 500.38,411.41 502.12,413.4 504.84,413.4 C 506.79,413.4 506.89,411.8 506.89,410.96 C 506.89,408.87 505.39,405 504.84,403.53 C 504.45,402.56 504.32,402.24 504.32,401.65 C 504.32,399.8 505.85,398.65 507.63,398.65 C 511.11,398.65 512.65,403.46 512.65,403.98 C 512.65,404.44 512.2,404.44 512.09,404.44 C 511.6,404.44 511.57,404.23 511.43,403.85 C 510.62,401.06 509.13,399.63 507.73,399.63 C 507,399.63 506.86,400.12 506.86,400.85 C 506.86,401.65 507.04,402.1 507.66,403.67 C 508.08,404.75 509.51,408.45 509.51,410.4 C 509.51,410.96 509.51,412.43 508.22,413.44 C 507.63,413.89 506.62,414.38 504.98,414.38 C 501.84,414.38 499.92,412.32 498.8,410.86 C 498.53,413.82 496.05,414.38 494.27,414.38 C 491.38,414.38 489.43,412.6 488.38,411.2 C 488.14,413.61 486.08,414.38 484.65,414.38 C 483.15,414.38 482.35,413.3 481.89,412.5 C 481.13,411.2 480.64,409.21 480.64,409.04 C 480.64,408.59 481.13,408.59 481.23,408.59 C 481.72,408.59 481.75,408.7 482,409.64 C 482.52,411.69 483.18,413.4 484.54,413.4 C 485.45,413.4 485.7,412.63 485.7,411.69 C 485.7,411.03 485.38,409.74 485.14,408.8 C 484.89,407.86 484.54,406.43 484.37,405.66 L 483.25,401.2 C 483.11,400.74 482.91,399.87 482.91,399.77 C 482.91,399 483.53,398.65 484.09,398.65 C 484.72,398.65 485.28,399.11 485.45,399.42 C 485.62,399.73 485.9,400.85 486.08,401.58 C 486.25,402.24 486.64,403.85 486.84,404.72 C 487.05,405.48 487.27,406.25 487.44,407.05 C 487.82,408.48 487.89,408.76 488.9,410.19 C 489.88,411.59 491.52,413.4 494.13,413.4 C 496.16,413.4 496.19,411.62 496.19,410.96 C 496.19,410.09 496.09,409.64 495.6,407.68 L 494.13,401.82 z "
           id="path7549" /></g>    </g>
    <path
       id="path7611"
       d="M 501.42857,392.36218 L 507.14286,435.93361"
       style="color:#000000;fill:none;fill-opacity:1;fill-rule:nonzero;stroke:#000000;stroke-width:2;stroke-linecap:butt;stroke-linejoin:miter;marker:none;marker-start:none;marker-mid:none;marker-end:none;stroke-miterlimit:4;stroke-dasharray:none;stroke-dashoffset:0;stroke-opacity:1;visibility:visible;display:inline;overflow:visible;enable-background:accumulate"
       inkscape:export-filename="/home/jpivarski/work/hepr8.physics.tamu.edu/talks/latest/curvature_extrapolation.png"
       inkscape:export-xdpi="187.59528"
       inkscape:export-ydpi="187.59528" />
    <text
       style="font-size:14px;font-style:normal;font-variant:normal;font-weight:normal;font-stretch:normal;text-align:center;line-height:125%;writing-mode:lr-tb;text-anchor:middle;fill:#000000;fill-opacity:1;stroke:none;stroke-width:1px;stroke-linecap:butt;stroke-linejoin:miter;stroke-opacity:1;font-family:Sans"
       id="text7631"
       sodipodi:linespacing="125%"
       y="417.21933"
       x="580.47791"
       xml:space="preserve"
       inkscape:export-filename="/home/jpivarski/work/hepr8.physics.tamu.edu/talks/latest/curvature_extrapolation.png"
       inkscape:export-xdpi="187.59528"
       inkscape:export-ydpi="187.59528"><tspan
         sodipodi:role="line"
         id="tspan7633"
         y="417.21933"
         x="580.47791">half-radius = 0.5m</tspan></text>
    <g
       id="g7797"
       transform="matrix(0.449215,0,0,0.449215,636.71167,256.17715)"
       inkscape:export-filename="/home/jpivarski/work/hepr8.physics.tamu.edu/talks/latest/curvature_extrapolation.png"
       inkscape:export-xdpi="187.59528"
       inkscape:export-ydpi="187.59528">
      <g
         style="font-style:normal;font-variant:normal;font-weight:normal;font-stretch:normal;letter-spacing:normal;word-spacing:normal;text-anchor:start;fill:none;fill-opacity:1;stroke:#000000;stroke-linecap:butt;stroke-linejoin:miter;stroke-miterlimit:10.43299961;stroke-dasharray:none;stroke-dashoffset:0;stroke-opacity:1"
         id="g7799"
         xml:space="preserve"
         transform="matrix(1.0629921,0,0,-1.0629921,-186.02362,789.27165)"><path
           style="fill:#000000;stroke-width:0"
           id="path7801"
           d="M 478.66,430.91 L 478.66,431.22 L 478.65,431.56 L 478.64,431.92 L 478.62,432.29 L 478.59,432.67 L 478.55,433.07 L 478.5,433.48 L 478.44,433.89 L 478.38,434.31 L 478.3,434.73 L 478.21,435.16 L 478.11,435.58 L 478,436.01 L 477.87,436.43 L 477.74,436.84 L 477.58,437.24 L 477.41,437.64 L 477.23,438.03 L 477.03,438.4 L 476.81,438.75 L 476.58,439.09 L 476.33,439.41 L 476.06,439.71 L 475.77,439.98 L 475.46,440.23 L 475.29,440.35 L 475.13,440.46 L 474.95,440.56 L 474.78,440.65 L 474.59,440.74 L 474.4,440.81 L 474.21,440.88 L 474.01,440.94 L 473.8,441 L 473.59,441.04 L 473.38,441.07 L 473.15,441.1 L 472.92,441.11 L 472.69,441.12 L 472.64,440.02 C 475.08,440.02 475.38,436.84 475.38,434 C 475.38,431.55 474.98,429.01 473.79,424.08 L 463.37,424.08 C 464.22,427.27 465.21,431.25 467.21,434.79 C 468.55,437.23 470.39,440.02 472.64,440.02 L 472.69,441.12 C 465.76,441.12 458.09,427.07 458.09,415.66 C 458.09,410.98 459.54,405.45 464.07,405.45 L 464.07,406.55 C 462.43,406.55 461.38,407.99 461.38,412.62 C 461.38,414.72 461.68,417.61 462.97,422.49 L 473.34,422.49 C 472.79,420.2 471.74,415.96 469.85,412.38 C 468.11,408.99 466.21,406.55 464.07,406.55 L 464.07,405.45 C 471.09,405.45 478.66,419.75 478.66,430.91 z " /><path
           style="fill:#000000;stroke-width:0"
           id="path7803"
           d="M 487.58,412.77 L 491.13,412.77 C 491.8,412.77 492.25,412.77 492.25,413.54 C 492.25,414.03 491.8,414.03 491.2,414.03 L 487.89,414.03 L 489.18,419.19 C 489.21,419.36 489.29,419.54 489.29,419.68 C 489.29,420.3 488.8,420.79 488.1,420.79 C 487.23,420.79 486.71,420.2 486.46,419.29 C 486.22,418.42 486.67,420.1 485.14,414.03 L 481.58,414.03 C 480.92,414.03 480.46,414.03 480.46,413.26 C 480.46,412.77 480.88,412.77 481.51,412.77 L 484.82,412.77 C 484.16,410.02 483.46,407.3 482.77,404.54 C 482.56,403.67 482.24,402.42 482.24,401.96 C 482.24,399.91 483.98,398.65 485.97,398.65 C 489.84,398.65 492.04,403.53 492.04,403.98 C 492.04,404.44 491.59,404.44 491.48,404.44 C 491.07,404.44 491.03,404.37 490.75,403.78 C 489.77,401.58 488,399.63 486.08,399.63 C 485.35,399.63 484.86,400.08 484.86,401.34 C 484.86,401.68 485,402.42 485.07,402.77 L 487.58,412.77 z " /></g>    </g>
    <path
       clip-path="url(#clipPath7909)"
       transform="matrix(4.6800507,0,0,4.6800507,-1543.1601,-1581.8448)"
       style="color:#000000;fill:none;fill-opacity:1;fill-rule:nonzero;stroke:#000000;stroke-width:0.42734581;stroke-linecap:butt;stroke-linejoin:miter;marker:none;marker-start:none;marker-mid:none;marker-end:none;stroke-miterlimit:4;stroke-dasharray:none;stroke-dashoffset:0;stroke-opacity:1;visibility:visible;display:inline;overflow:visible;enable-background:accumulate"
       id="path7699"
       sodipodi:cx="328.57144"
       sodipodi:cy="436.64789"
       sodipodi:type="arc"
       d="M 409.354,277.39359 A 178.57143,178.57143 0 0 1 507.14252,436.29557 L 328.57144,436.64789 z"
       sodipodi:start="5.1818238"
       sodipodi:end="6.2812123"
       sodipodi:rx="178.57143"
       sodipodi:ry="178.57143"
       inkscape:export-filename="/home/jpivarski/work/hepr8.physics.tamu.edu/talks/latest/curvature_extrapolation.png"
       inkscape:export-xdpi="187.59528"
       inkscape:export-ydpi="187.59528" />
    <path
       transform="matrix(4.6800507,0,0,4.6800507,-3599.0994,-1582.855)"
       clip-path="url(#clipPath7893)"
       style="color:#000000;fill:none;fill-opacity:1;fill-rule:nonzero;stroke:#000000;stroke-width:0.42734581;stroke-linecap:butt;stroke-linejoin:miter;marker:none;marker-start:none;marker-mid:none;marker-end:none;stroke-miterlimit:4;stroke-dasharray:none;stroke-dashoffset:0;stroke-opacity:1;visibility:visible;display:inline;overflow:visible;enable-background:accumulate"
       d="M 946.42857,436.6479 L 946.42857,274.50504"
       id="path7709"
       inkscape:export-filename="/home/jpivarski/work/hepr8.physics.tamu.edu/talks/latest/curvature_extrapolation.png"
       inkscape:export-xdpi="187.59528"
       inkscape:export-ydpi="187.59528" />
    <path
       transform="matrix(4.6800507,0,0,4.6800507,-3602.3824,-1581.8448)"
       clip-path="url(#clipPath7889)"
       style="color:#000000;fill:none;fill-opacity:1;fill-rule:nonzero;stroke:#000000;stroke-width:0.42734581;stroke-linecap:butt;stroke-linejoin:miter;marker:none;marker-start:none;marker-mid:none;marker-end:none;stroke-miterlimit:4;stroke-dasharray:none;stroke-dashoffset:0;stroke-opacity:1;visibility:visible;display:inline;overflow:visible;enable-background:accumulate"
       id="path7711"
       sodipodi:nodetypes="cc"
       d="M 941.76652,392.0654 L 769.30803,436.11218"
       inkscape:export-filename="/home/jpivarski/work/hepr8.physics.tamu.edu/talks/latest/curvature_extrapolation.png"
       inkscape:export-xdpi="187.59528"
       inkscape:export-ydpi="187.59528" />
    <path
       transform="matrix(4.6800507,0,0,4.6800507,-3602.3824,-1581.8448)"
       clip-path="url(#clipPath7885)"
       style="color:#000000;fill:none;fill-opacity:1;fill-rule:nonzero;stroke:#000000;stroke-width:0.42734581;stroke-linecap:butt;stroke-linejoin:miter;marker:none;marker-start:none;marker-mid:none;marker-end:none;stroke-miterlimit:4;stroke-dasharray:1.28203739, 1.28203739;stroke-dashoffset:0;stroke-opacity:1;visibility:visible;display:inline;overflow:visible;enable-background:accumulate"
       d="M 945.71429,413.07647 L 770.71429,435.93361"
       id="path7791"
       inkscape:export-filename="/home/jpivarski/work/hepr8.physics.tamu.edu/talks/latest/curvature_extrapolation.png"
       inkscape:export-xdpi="187.59528"
       inkscape:export-ydpi="187.59528" />
    <path
       sodipodi:nodetypes="cc"
       transform="matrix(4.6800507,0,0,4.6800507,-3602.3824,-1581.8448)"
       clip-path="url(#clipPath7881)"
       style="color:#000000;fill:none;fill-opacity:1;fill-rule:nonzero;stroke:#000000;stroke-width:0.42734581;stroke-linecap:butt;stroke-linejoin:miter;marker:none;marker-start:none;marker-mid:none;marker-end:none;stroke-miterlimit:4;stroke-dasharray:none;stroke-dashoffset:0;stroke-opacity:1;visibility:visible;display:inline;overflow:visible;enable-background:accumulate"
       d="M 941.75233,392.03842 L 947.14286,435.93361"
       id="path7813"
       inkscape:export-filename="/home/jpivarski/work/hepr8.physics.tamu.edu/talks/latest/curvature_extrapolation.png"
       inkscape:export-xdpi="187.59528"
       inkscape:export-ydpi="187.59528" />
    <path
       style="color:#000000;fill:#000000;fill-opacity:1;fill-rule:nonzero;stroke:none;stroke-width:2;stroke-linecap:butt;stroke-linejoin:miter;marker:none;marker-start:none;marker-mid:none;marker-end:none;stroke-miterlimit:4;stroke-dasharray:none;stroke-dashoffset:0;stroke-opacity:1;visibility:visible;display:inline;overflow:visible;enable-background:accumulate"
       id="path9929"
       sodipodi:cx="270.46835"
       sodipodi:cy="331.36581"
       sodipodi:type="arc"
       d="M 274.25643 331.36581 A 3.7880719 3.7880719 0 1 1  266.68028,331.36581 A 3.7880719 3.7880719 0 1 1  274.25643 331.36581 z"
       transform="translate(534.87567,-78.022856)"
       sodipodi:rx="3.7880719"
       sodipodi:ry="3.7880719"
       inkscape:export-filename="/home/jpivarski/work/hepr8.physics.tamu.edu/talks/latest/curvature_extrapolation.png"
       inkscape:export-xdpi="187.59528"
       inkscape:export-ydpi="187.59528" />
    <path
       sodipodi:ry="3.7880719"
       sodipodi:rx="3.7880719"
       transform="translate(552.87567,19.977144)"
       d="M 274.25643 331.36581 A 3.7880719 3.7880719 0 1 1  266.68028,331.36581 A 3.7880719 3.7880719 0 1 1  274.25643 331.36581 z"
       sodipodi:type="arc"
       sodipodi:cy="331.36581"
       sodipodi:cx="270.46835"
       id="path9931"
       style="color:#000000;fill:#000000;fill-opacity:1;fill-rule:nonzero;stroke:none;stroke-width:2;stroke-linecap:butt;stroke-linejoin:miter;marker:none;marker-start:none;marker-mid:none;marker-end:none;stroke-miterlimit:4;stroke-dasharray:none;stroke-dashoffset:0;stroke-opacity:1;visibility:visible;display:inline;overflow:visible;enable-background:accumulate"
       inkscape:export-filename="/home/jpivarski/work/hepr8.physics.tamu.edu/talks/latest/curvature_extrapolation.png"
       inkscape:export-xdpi="187.59528"
       inkscape:export-ydpi="187.59528" />
    <path
       style="color:#000000;fill:#000000;fill-opacity:1;fill-rule:nonzero;stroke:none;stroke-width:2;stroke-linecap:butt;stroke-linejoin:miter;marker:none;marker-start:none;marker-mid:none;marker-end:none;stroke-miterlimit:4;stroke-dasharray:none;stroke-dashoffset:0;stroke-opacity:1;visibility:visible;display:inline;overflow:visible;enable-background:accumulate"
       id="path9933"
       sodipodi:cx="270.46835"
       sodipodi:cy="331.36581"
       sodipodi:type="arc"
       d="M 274.25643 331.36581 A 3.7880719 3.7880719 0 1 1  266.68028,331.36581 A 3.7880719 3.7880719 0 1 1  274.25643 331.36581 z"
       transform="translate(559.58996,128.69143)"
       sodipodi:rx="3.7880719"
       sodipodi:ry="3.7880719"
       inkscape:export-filename="/home/jpivarski/work/hepr8.physics.tamu.edu/talks/latest/curvature_extrapolation.png"
       inkscape:export-xdpi="187.59528"
       inkscape:export-ydpi="187.59528" />
    <path
       transform="translate(-120,0)"
       sodipodi:open="true"
       sodipodi:end="6.2912761"
       sodipodi:start="6.093197"
       d="M 875.86003,360.55198 A 502.04581,502.04581 0 0 1 884.87718,459.42393"
       sodipodi:ry="502.04581"
       sodipodi:rx="502.04581"
       sodipodi:cy="455.36203"
       sodipodi:cx="382.84781"
       id="path9935"
       style="opacity:1;color:#000000;fill:none;fill-opacity:1;fill-rule:nonzero;stroke:#000000;stroke-width:2;stroke-linecap:butt;stroke-linejoin:miter;marker:none;marker-start:none;marker-mid:none;marker-end:none;stroke-miterlimit:4;stroke-dasharray:none;stroke-dashoffset:0;stroke-opacity:1;visibility:visible;display:inline;overflow:visible;enable-background:accumulate"
       sodipodi:type="arc"
       inkscape:export-filename="/home/jpivarski/work/hepr8.physics.tamu.edu/talks/latest/curvature_extrapolation.png"
       inkscape:export-xdpi="187.59528"
       inkscape:export-ydpi="187.59528" />
    <text
       sodipodi:linespacing="125%"
       id="text9937"
       y="323.58115"
       x="894.36285"
       style="font-size:14px;font-style:normal;font-variant:normal;font-weight:normal;font-stretch:normal;text-align:center;line-height:125%;writing-mode:lr-tb;text-anchor:middle;fill:#000000;fill-opacity:1;stroke:none;stroke-width:1px;stroke-linecap:butt;stroke-linejoin:miter;stroke-opacity:1;font-family:Sans"
       xml:space="preserve"
       inkscape:export-filename="/home/jpivarski/work/hepr8.physics.tamu.edu/talks/latest/curvature_extrapolation.png"
       inkscape:export-xdpi="187.59528"
       inkscape:export-ydpi="187.59528"><tspan
         y="323.58115"
         x="894.36285"
         id="tspan9939"
         sodipodi:role="line">sagitta =</tspan></text>
    <path
       sodipodi:nodetypes="cc"
       id="path2235"
       d="M 880.1249,309.29197 C 872.90268,289.91076 839.85517,312.94411 821.53602,340.6067"
       style="opacity:1;color:#000000;fill:none;fill-opacity:1;fill-rule:nonzero;stroke:#000000;stroke-width:2;stroke-linecap:butt;stroke-linejoin:miter;marker:none;marker-start:none;marker-mid:none;marker-end:url(#Arrow1Mend);stroke-miterlimit:4;stroke-dasharray:none;stroke-dashoffset:0;stroke-opacity:1;visibility:visible;display:inline;overflow:visible;enable-background:accumulate"
       inkscape:export-filename="/home/jpivarski/work/hepr8.physics.tamu.edu/talks/latest/curvature_extrapolation.png"
       inkscape:export-xdpi="187.59528"
       inkscape:export-ydpi="187.59528" />
    <svg
       preserveAspectRatio="none"
       viewBox="0 0 1 1"
       height="8in"
       width="8in"
       id="body"
       baseProfile="full"
       version="1.1"
       inkscape:export-filename="/home/jpivarski/work/hepr8.physics.tamu.edu/talks/latest/curvature_extrapolation.png"
       inkscape:export-xdpi="187.59528"
       inkscape:export-ydpi="187.59528" />
  </g>
</svg>
